<svg xmlns="http://www.w3.org/2000/svg" xmlns:svg="http://www.w3.org/2000/svg" xmlns:xlink="http://www.w3.org/1999/xlink" id="svg18" width="344" height="344" preserveAspectRatio="xMidYMid meet" version="1.0" viewBox="0 0 258 258"><metadata id="metadata24"/><defs id="defs22"><linearGradient id="linearGradient871"><stop style="stop-color:#8e2de2;stop-opacity:1" id="stop867" offset="0"/><stop style="stop-color:#4a00e0;stop-opacity:1" id="stop869" offset="1"/></linearGradient><linearGradient id="linearGradient873" x1="0" x2="2580" y1="2580" y2="0" gradientUnits="userSpaceOnUse" xlink:href="#linearGradient871"/></defs><rect style="fill:#fff;stroke-width:3.61809" id="rect26" width="258" height="258" x="0" y="0"/><g id="g16" fill="#546e7a" stroke="none" transform="matrix(0.1,0,0,-0.1,0,258)" style="stroke:none;stroke-opacity:1;fill-opacity:1;fill:url(#linearGradient873)"><path id="path10" d="M 0,1290 V 0 H 1290 2580 V 1290 2580 H 1290 0 Z m 1978,730 c 18,-11 41,-34 52,-52 19,-32 20,-52 20,-528 0,-476 -1,-496 -20,-528 -11,-18 -34,-41 -52,-52 -31,-18 -51,-20 -283,-20 H 1446 L 1295,690 1144,540 h -52 c -85,0 -92,13 -92,170 V 840 H 828 c -193,0 -218,7 -258,72 -19,32 -20,52 -20,528 0,476 1,496 20,528 11,18 34,41 52,52 32,19 52,20 678,20 626,0 646,-1 678,-20 z" style="stroke:none;stroke-opacity:1;fill-opacity:1;fill:url(#linearGradient873)"/><path id="path12" d="m 977,1636 -47,-104 v -156 -156 h 145 145 v 145 145 h -75 c -41,0 -75,4 -75,9 0,5 22,57 50,115 l 49,106 h -72 -73 z" style="stroke:none;stroke-opacity:1;fill-opacity:1;fill:url(#linearGradient873)"/><path id="path14" d="m 1427,1636 -47,-104 v -156 -156 h 145 145 v 145 145 h -75 c -41,0 -75,4 -75,9 0,5 22,57 50,115 l 49,106 h -72 -73 z" style="stroke:none;stroke-opacity:1;fill-opacity:1;fill:url(#linearGradient873)"/></g></svg>