<?xml version="1.0" standalone="no"?>
<!DOCTYPE svg PUBLIC "-//W3C//DTD SVG 20010904//EN"
 "http://www.w3.org/TR/2001/REC-SVG-20010904/DTD/svg10.dtd">
<svg version="1.0" xmlns="http://www.w3.org/2000/svg"
 width="258.000000pt" height="258.000000pt" viewBox="0 0 258.000000 258.000000"
 preserveAspectRatio="xMidYMid meet">
<g transform="translate(0.000000,258.000000) scale(0.100000,-0.100000)"
fill="#546E7A" stroke="none">
<path d="M0 1290 l0 -1290 1290 0 1290 0 0 1290 0 1290 -1290 0 -1290 0 0
-1290z m1978 730 c18 -11 41 -34 52 -52 19 -32 20 -52 20 -528 0 -476 -1 -496
-20 -528 -11 -18 -34 -41 -52 -52 -31 -18 -51 -20 -283 -20 l-249 0 -151 -150
-151 -150 -52 0 c-85 0 -92 13 -92 170 l0 130 -172 0 c-193 0 -218 7 -258 72
-19 32 -20 52 -20 528 0 476 1 496 20 528 11 18 34 41 52 52 32 19 52 20 678
20 626 0 646 -1 678 -20z"/>
<path d="M977 1636 l-47 -104 0 -156 0 -156 145 0 145 0 0 145 0 145 -75 0
c-41 0 -75 4 -75 9 0 5 22 57 50 115 l49 106 -72 0 -73 0 -47 -104z"/>
<path d="M1427 1636 l-47 -104 0 -156 0 -156 145 0 145 0 0 145 0 145 -75 0
c-41 0 -75 4 -75 9 0 5 22 57 50 115 l49 106 -72 0 -73 0 -47 -104z"/>
</g>
</svg>
