<?xml version="1.0" encoding="UTF-8" standalone="no"?>
<svg
   xmlns:dc="http://purl.org/dc/elements/1.1/"
   xmlns:cc="http://creativecommons.org/ns#"
   xmlns:rdf="http://www.w3.org/1999/02/22-rdf-syntax-ns#"
   xmlns:svg="http://www.w3.org/2000/svg"
   xmlns="http://www.w3.org/2000/svg"
   xmlns:xlink="http://www.w3.org/1999/xlink"
   xmlns:sodipodi="http://sodipodi.sourceforge.net/DTD/sodipodi-0.dtd"
   xmlns:inkscape="http://www.inkscape.org/namespaces/inkscape"
   version="1.0"
   width="344"
   height="344"
   viewBox="0 0 258 258"
   preserveAspectRatio="xMidYMid meet"
   id="svg18"
   sodipodi:docname="qb.svg"
   inkscape:version="1.0.1 (c497b03c, 2020-09-10)"
   inkscape:export-filename="/Users/bhargavxx/Downloads/qblogo.png"
   inkscape:export-xdpi="123.5"
   inkscape:export-ydpi="123.5">
  <metadata
     id="metadata24">
    <rdf:RDF>
      <cc:Work
         rdf:about="">
        <dc:format>image/svg+xml</dc:format>
        <dc:type
           rdf:resource="http://purl.org/dc/dcmitype/StillImage" />
        <dc:title></dc:title>
      </cc:Work>
    </rdf:RDF>
  </metadata>
  <defs
     id="defs22">
    <linearGradient
       inkscape:collect="always"
       id="linearGradient871">
      <stop
         style="stop-color:#8e2de2;stop-opacity:1"
         offset="0"
         id="stop867" />
      <stop
         style="stop-color:#4a00e0;stop-opacity:1"
         offset="1"
         id="stop869" />
    </linearGradient>
    <linearGradient
       inkscape:collect="always"
       xlink:href="#linearGradient871"
       id="linearGradient873"
       x1="0"
       y1="2580"
       x2="2580"
       y2="0"
       gradientUnits="userSpaceOnUse" />
  </defs>
  <sodipodi:namedview
     pagecolor="#ffffff"
     bordercolor="#666666"
     borderopacity="1"
     objecttolerance="10"
     gridtolerance="10"
     guidetolerance="10"
     inkscape:pageopacity="0"
     inkscape:pageshadow="2"
     inkscape:window-width="1440"
     inkscape:window-height="855"
     id="namedview20"
     showgrid="false"
     units="px"
     inkscape:zoom="1.2115834"
     inkscape:cx="129.53571"
     inkscape:cy="244.69997"
     inkscape:window-x="0"
     inkscape:window-y="23"
     inkscape:window-maximized="0"
     inkscape:current-layer="svg18" />
  <rect
     style="fill:#ffffff;stroke-width:3.61809"
     id="rect26"
     width="258"
     height="258"
     x="0"
     y="0" />
  <g
     transform="matrix(0.1,0,0,-0.1,0,258)"
     fill="#546e7a"
     stroke="none"
     id="g16"
     style="stroke:none;stroke-opacity:1;fill-opacity:1;fill:url(#linearGradient873)">
    <path
       d="M 0,1290 V 0 H 1290 2580 V 1290 2580 H 1290 0 Z m 1978,730 c 18,-11 41,-34 52,-52 19,-32 20,-52 20,-528 0,-476 -1,-496 -20,-528 -11,-18 -34,-41 -52,-52 -31,-18 -51,-20 -283,-20 H 1446 L 1295,690 1144,540 h -52 c -85,0 -92,13 -92,170 V 840 H 828 c -193,0 -218,7 -258,72 -19,32 -20,52 -20,528 0,476 1,496 20,528 11,18 34,41 52,52 32,19 52,20 678,20 626,0 646,-1 678,-20 z"
       id="path10"
       style="stroke:none;stroke-opacity:1;fill-opacity:1;fill:url(#linearGradient873)" />
    <path
       d="m 977,1636 -47,-104 v -156 -156 h 145 145 v 145 145 h -75 c -41,0 -75,4 -75,9 0,5 22,57 50,115 l 49,106 h -72 -73 z"
       id="path12"
       style="stroke:none;stroke-opacity:1;fill-opacity:1;fill:url(#linearGradient873)" />
    <path
       d="m 1427,1636 -47,-104 v -156 -156 h 145 145 v 145 145 h -75 c -41,0 -75,4 -75,9 0,5 22,57 50,115 l 49,106 h -72 -73 z"
       id="path14"
       style="stroke:none;stroke-opacity:1;fill-opacity:1;fill:url(#linearGradient873)" />
  </g>
</svg>
